<svg xmlns="http://www.w3.org/2000/svg" xmlns:xlink="http://www.w3.org/1999/xlink" width="500" zoomAndPan="magnify" viewBox="0 0 375 374.999991" height="500" preserveAspectRatio="xMidYMid meet" version="1.0"><defs><clipPath id="be05d0f13c"><path d="M 148 175 L 240.738281 175 L 240.738281 231 L 148 231 Z M 148 175 " clip-rule="nonzero"/></clipPath><clipPath id="075a224eeb"><path d="M 190 133.765625 L 212 133.765625 L 212 181 L 190 181 Z M 190 133.765625 " clip-rule="nonzero"/></clipPath><clipPath id="bb9b680511"><path d="M 134.238281 134 L 240.738281 134 L 240.738281 241.015625 L 134.238281 241.015625 Z M 134.238281 134 " clip-rule="nonzero"/></clipPath><clipPath id="560d85c136"><path d="M 112.5 112.5 L 262.5 112.5 L 262.5 262.5 L 112.5 262.5 Z M 112.5 112.5 " clip-rule="nonzero"/></clipPath></defs><g clip-path="url(#be05d0f13c)"><path fill="#6f4323" d="M 224.90625 189.75 C 224.953125 188.832031 224.984375 187.910156 224.984375 186.980469 C 224.984375 186.972656 224.984375 186.964844 224.984375 186.949219 C 224.984375 186.9375 224.984375 186.921875 224.984375 186.910156 C 224.957031 184.46875 222.917969 182.191406 219.390625 180.25 C 220.542969 181.367188 221.167969 182.5625 221.167969 183.808594 C 221.167969 189.792969 206.75 194.644531 188.96875 194.644531 C 171.183594 194.644531 156.765625 189.792969 156.765625 183.808594 C 156.765625 180.722656 160.59375 177.941406 166.742188 175.964844 C 162.050781 176.933594 157.175781 178.261719 153.066406 180.808594 C 150.765625 182.234375 146.804688 185.621094 149.027344 188.660156 C 151.621094 192.207031 156.027344 194.574219 159.96875 196.273438 C 165.046875 198.464844 170.492188 199.800781 175.960938 200.554688 C 177.484375 200.765625 179.019531 200.925781 180.554688 201.042969 C 192.019531 201.921875 202.394531 200.148438 209.070312 196.695312 C 203.65625 202.464844 190.507812 205.867188 175.480469 204.71875 C 164.980469 203.917969 155.730469 201.058594 149.578125 197.183594 C 150.390625 201.089844 151.65625 204.792969 153.304688 208.214844 C 161.042969 224.277344 180.742188 230.675781 196.4375 222.179688 C 196.511719 222.140625 196.582031 222.101562 196.65625 222.0625 C 206.253906 216.820312 213.542969 209.925781 216.984375 203.542969 C 215.808594 211.214844 207.195312 220.925781 194.613281 227.792969 C 192.472656 228.960938 190.324219 229.984375 188.199219 230.871094 C 206.484375 230.089844 221.484375 214.53125 224.449219 194.269531 C 224.519531 194.265625 224.589844 194.261719 224.660156 194.261719 C 230.519531 194.261719 235.265625 198.769531 235.265625 204.328125 C 235.265625 209.886719 230.519531 214.394531 224.660156 214.394531 C 222.707031 214.394531 220.875 213.890625 219.304688 213.015625 C 218.675781 214.417969 217.984375 215.78125 217.230469 217.097656 C 219.433594 218.253906 221.964844 218.914062 224.660156 218.914062 C 233.148438 218.914062 240.027344 212.382812 240.027344 204.328125 C 240.027344 196.351562 233.28125 189.871094 224.90625 189.75 " fill-opacity="1" fill-rule="nonzero"/></g><g clip-path="url(#075a224eeb)"><path fill="#845333" d="M 211.839844 133.777344 C 211.839844 133.777344 211.660156 133.921875 211.320312 134.1875 C 211.152344 134.316406 210.941406 134.476562 210.691406 134.65625 C 210.449219 134.84375 210.171875 135.054688 209.859375 135.296875 C 209.550781 135.53125 209.210938 135.796875 208.847656 136.085938 C 208.480469 136.375 208.09375 136.691406 207.6875 137.03125 C 206.882812 137.71875 205.988281 138.488281 205.132812 139.390625 C 204.277344 140.285156 203.429688 141.285156 202.75 142.402344 C 202.40625 142.957031 202.105469 143.539062 201.84375 144.140625 C 201.601562 144.753906 201.382812 145.375 201.230469 146.027344 C 201.082031 146.679688 200.984375 147.355469 200.929688 148.0625 C 200.882812 148.765625 200.878906 149.496094 200.917969 150.253906 C 200.996094 151.773438 201.222656 153.378906 201.511719 155.0625 C 201.792969 156.738281 202.125 158.484375 202.367188 160.289062 C 202.425781 160.738281 202.476562 161.195312 202.527344 161.648438 C 202.570312 162.109375 202.609375 162.566406 202.632812 163.027344 C 202.6875 163.953125 202.71875 164.882812 202.660156 165.816406 C 202.605469 166.746094 202.515625 167.679688 202.328125 168.582031 C 202.140625 169.488281 201.890625 170.371094 201.5625 171.195312 C 201.234375 172.023438 200.835938 172.792969 200.402344 173.5 C 199.941406 174.1875 199.480469 174.832031 198.964844 175.378906 C 197.953125 176.492188 196.890625 177.3125 195.917969 177.9375 C 194.945312 178.570312 194.039062 178.988281 193.296875 179.3125 C 192.546875 179.617188 191.949219 179.828125 191.53125 179.945312 C 191.121094 180.0625 190.898438 180.128906 190.898438 180.128906 C 190.898438 180.128906 191.058594 179.964844 191.359375 179.65625 C 191.507812 179.5 191.699219 179.324219 191.910156 179.101562 C 192.117188 178.875 192.359375 178.628906 192.628906 178.351562 C 193.148438 177.769531 193.785156 177.09375 194.402344 176.261719 C 195.03125 175.445312 195.671875 174.5 196.195312 173.433594 C 196.730469 172.378906 197.128906 171.203125 197.347656 169.941406 C 197.441406 169.304688 197.527344 168.65625 197.542969 167.976562 C 197.542969 167.292969 197.542969 166.589844 197.476562 165.859375 C 197.410156 165.132812 197.320312 164.375 197.199219 163.601562 C 197.070312 162.824219 196.921875 162.027344 196.757812 161.207031 C 196.433594 159.566406 196.058594 157.839844 195.75 156.023438 C 195.445312 154.214844 195.21875 152.296875 195.246094 150.328125 C 195.253906 149.339844 195.351562 148.339844 195.523438 147.351562 C 195.699219 146.359375 195.941406 145.378906 196.308594 144.453125 C 196.675781 143.527344 197.101562 142.640625 197.621094 141.84375 C 197.890625 141.453125 198.140625 141.058594 198.4375 140.707031 C 198.578125 140.53125 198.71875 140.351562 198.863281 140.179688 C 199.011719 140.015625 199.164062 139.851562 199.3125 139.6875 C 200.515625 138.40625 201.832031 137.464844 203.070312 136.730469 C 204.3125 135.992188 205.507812 135.488281 206.570312 135.085938 C 207.105469 134.898438 207.597656 134.714844 208.070312 134.589844 C 208.539062 134.453125 208.964844 134.324219 209.363281 134.242188 C 210.148438 134.042969 210.761719 133.941406 211.1875 133.875 C 211.613281 133.8125 211.839844 133.777344 211.839844 133.777344 " fill-opacity="1" fill-rule="nonzero"/></g><g clip-path="url(#bb9b680511)"><path fill="#bf935b" d="M 219.792969 221.425781 C 211.421875 229.476562 200.042969 234.429688 187.503906 234.429688 C 161.796875 234.429688 140.957031 213.625 140.957031 187.964844 C 140.957031 162.300781 161.796875 141.5 187.503906 141.5 C 189.699219 141.5 191.855469 141.65625 193.972656 141.949219 C 194.285156 141.296875 194.617188 140.6875 194.980469 140.132812 L 195.199219 139.808594 C 195.421875 139.480469 195.675781 139.105469 195.988281 138.730469 L 196.085938 138.601562 C 196.207031 138.449219 196.328125 138.296875 196.453125 138.152344 L 196.5 138.097656 L 197 137.554688 C 197.492188 137.027344 198.023438 136.527344 198.585938 136.050781 C 195.011719 135.296875 191.304688 134.894531 187.503906 134.894531 C 158.140625 134.894531 134.339844 158.65625 134.339844 187.964844 C 134.339844 217.273438 158.140625 241.035156 187.503906 241.035156 C 204.050781 241.035156 218.828125 233.488281 228.578125 221.65625 C 227.316406 221.917969 226.003906 222.058594 224.660156 222.058594 C 223.011719 222.058594 221.375 221.839844 219.792969 221.425781 Z M 209.488281 139.632812 C 208.835938 140.191406 208.109375 140.828125 207.421875 141.550781 C 206.554688 142.457031 205.910156 143.265625 205.445312 144.03125 C 205.273438 144.308594 205.121094 144.597656 204.976562 144.886719 C 222.023438 151.785156 234.046875 168.472656 234.046875 187.964844 C 234.046875 188.332031 234.042969 188.699219 234.035156 189.066406 C 236.53125 190.484375 238.660156 192.445312 240.230469 194.777344 C 240.515625 192.546875 240.664062 190.273438 240.664062 187.964844 C 240.664062 166.484375 227.878906 147.984375 209.488281 139.632812 " fill-opacity="1" fill-rule="nonzero"/></g><path fill="#bf935b" d="M 188.882812 145.566406 C 188.882812 145.566406 188.867188 145.699219 188.828125 145.9375 C 188.785156 146.171875 188.710938 146.527344 188.640625 146.960938 C 188.589844 147.398438 188.496094 147.886719 188.464844 148.476562 C 188.453125 148.625 188.4375 148.769531 188.421875 148.921875 C 188.417969 149.074219 188.414062 149.230469 188.414062 149.394531 C 188.410156 149.554688 188.402344 149.714844 188.398438 149.878906 C 188.40625 150.042969 188.414062 150.210938 188.421875 150.382812 C 188.433594 151.066406 188.542969 151.789062 188.675781 152.53125 C 188.832031 153.277344 189.050781 154.046875 189.316406 154.84375 C 189.472656 155.242188 189.605469 155.644531 189.777344 156.058594 C 189.933594 156.464844 190.125 156.882812 190.296875 157.308594 C 190.679688 158.179688 191.070312 159.0625 191.460938 159.945312 C 191.855469 160.847656 192.242188 161.792969 192.578125 162.757812 C 192.660156 163 192.746094 163.234375 192.824219 163.480469 C 192.898438 163.726562 192.96875 163.972656 193.042969 164.214844 C 193.171875 164.714844 193.316406 165.199219 193.394531 165.699219 C 193.605469 166.6875 193.6875 167.683594 193.699219 168.621094 C 193.683594 169.09375 193.6875 169.546875 193.625 169.988281 C 193.597656 170.203125 193.570312 170.421875 193.542969 170.632812 C 193.503906 170.839844 193.46875 171.042969 193.421875 171.242188 C 193.34375 171.644531 193.234375 172.015625 193.121094 172.363281 C 193.015625 172.714844 192.890625 173.039062 192.753906 173.335938 C 192.515625 173.933594 192.214844 174.417969 191.992188 174.808594 C 191.753906 175.199219 191.515625 175.476562 191.378906 175.675781 C 191.230469 175.867188 191.148438 175.964844 191.148438 175.964844 C 191.148438 175.964844 191.152344 175.832031 191.167969 175.59375 C 191.1875 175.355469 191.210938 175.007812 191.246094 174.570312 C 191.25 174.128906 191.304688 173.613281 191.28125 173.023438 C 191.277344 172.875 191.28125 172.726562 191.28125 172.574219 C 191.28125 172.421875 191.261719 172.261719 191.253906 172.101562 C 191.230469 171.78125 191.226562 171.449219 191.167969 171.101562 C 191.144531 170.929688 191.128906 170.757812 191.109375 170.582031 C 191.078125 170.40625 191.046875 170.226562 191.015625 170.046875 C 190.960938 169.683594 190.871094 169.3125 190.78125 168.9375 C 190.589844 168.1875 190.363281 167.410156 190.0625 166.605469 C 189.921875 166.207031 189.75 165.796875 189.589844 165.386719 C 189.414062 164.972656 189.234375 164.550781 189.054688 164.128906 C 188.667969 163.257812 188.277344 162.371094 187.886719 161.488281 C 187.492188 160.574219 187.109375 159.636719 186.773438 158.664062 C 186.605469 158.175781 186.449219 157.691406 186.320312 157.1875 C 186.179688 156.695312 186.074219 156.183594 185.976562 155.6875 C 185.800781 154.679688 185.730469 153.671875 185.761719 152.71875 C 185.820312 151.765625 185.949219 150.871094 186.195312 150.085938 C 186.253906 149.886719 186.3125 149.695312 186.371094 149.507812 C 186.441406 149.328125 186.511719 149.148438 186.582031 148.980469 C 186.65625 148.808594 186.726562 148.644531 186.792969 148.484375 C 186.871094 148.332031 186.953125 148.179688 187.03125 148.039062 C 187.324219 147.464844 187.671875 146.996094 187.9375 146.625 C 188.066406 146.433594 188.210938 146.300781 188.324219 146.164062 C 188.445312 146.035156 188.542969 145.925781 188.625 145.839844 C 188.789062 145.660156 188.882812 145.566406 188.882812 145.566406 " fill-opacity="1" fill-rule="nonzero"/><g clip-path="url(#560d85c136)"><path fill="#bf935b" d="M 187.5 112.5 C 146.121094 112.5 112.5 146.121094 112.5 187.5 C 112.5 228.878906 146.121094 262.5 187.5 262.5 C 228.878906 262.5 262.5 228.878906 262.5 187.5 C 262.5 146.121094 228.878906 112.5 187.5 112.5 Z M 187.5 115.761719 C 227.160156 115.761719 259.238281 147.839844 259.238281 187.5 C 259.238281 227.160156 227.160156 259.238281 187.5 259.238281 C 147.839844 259.238281 115.761719 227.160156 115.761719 187.5 C 115.761719 147.839844 147.839844 115.761719 187.5 115.761719 Z M 187.5 115.761719 " fill-opacity="1" fill-rule="nonzero"/></g></svg>